# xmcd CD database file
#
# Track frame offsets:
#	150
#	13512
#	27725
#	42461
#	55928
#	68158
#	81126
#	93729
#	105358
#	118363
#	133574
#	144001
#	155178
#	168487
#	182538
#	192789
#	203160
#
# Disc length: 2873 seconds
#
# Revision: 0
# Processed by: cddbd v1.5PL3 Copyright (c) Steve Scherf et al.
# Submitted via: CDex 1.50beta10
#
DISCID=ed0b3711
DTITLE=Count Basie - Masters of Jazz
DYEAR=2002
DGENRE=Jazz
TTITLE0=One O'clock jump
TTITLE1=Topsy
TTITLE2=Every tub
TTITLE3=Jumpin' at the woodside
TTITLE4=Jive at five
TTITLE5=Goin' to Chicago
TTITLE6=Blues (I still think of her)
TTITLE7=Tickle toe
TTITLE8=Somebody stole my gal
TTITLE9=Super chief
TTITLE10=Moten swing
TTITLE11=Draftin' blues
TTITLE12=Broadway
TTITLE13=Fiesta in blue
TTITLE14=Red bank boogie
TTITLE15=Jivin' Joe Jackson
TTITLE16=Swingin' the blues
EXTD=YEAR: 2002
EXTT0=
EXTT1=
EXTT2=
EXTT3=
EXTT4=
EXTT5=
EXTT6=
EXTT7=
EXTT8=
EXTT9=
EXTT10=
EXTT11=
EXTT12=
EXTT13=
EXTT14=
EXTT15=
EXTT16=
PLAYORDER=
